<svg width="128" height="128" viewBox="0 0 128 128" fill="none" xmlns="http://www.w3.org/2000/svg">
  <rect x="8" y="8" width="112" height="112" rx="28" fill="url(#bg)"/>
  <rect x="8" y="8" width="112" height="112" rx="28" stroke="#D7CFC5" stroke-width="2"/>
  <circle cx="42" cy="42" r="10" fill="#FFF7E5"/>
  <circle cx="64" cy="34" r="10" fill="#FFF7E5"/>
  <circle cx="86" cy="42" r="10" fill="#FFF7E5"/>
  <path d="M44.8 82.4C44.8 68.26 56.26 56.8 70.4 56.8H71.53C81.9 56.8 90.3 65.2 90.3 75.57C90.3 87.96 80.26 98 67.87 98H59.2C51.69 98 45.6 91.91 45.6 84.4C45.6 83.72 45.33 83.07 44.86 82.6L44.8 82.54V82.4Z" fill="#FFF7E5"/>
  <path d="M55.5 70.8C57.6 64.5 62.99 60 69.4 60C77.59 60 84.23 66.64 84.23 74.83C84.23 84.09 76.72 91.6 67.46 91.6H60.4C56.43 91.6 53.2 88.38 53.2 84.4C53.2 80.58 54.31 74.31 55.5 70.8Z" fill="#2D7D46"/>
  <path d="M79 50.5C84.3 45.2 92.9 45.2 98.2 50.5C99.26 51.56 99.26 53.28 98.2 54.34L84.66 67.88C83.6 68.94 81.88 68.94 80.82 67.88C75.52 62.58 75.52 53.98 80.82 48.68L79 50.5Z" fill="#7BC67B"/>
  <defs>
    <linearGradient id="bg" x1="18" y1="18" x2="110" y2="110" gradientUnits="userSpaceOnUse">
      <stop stop-color="#2D7D46"/>
      <stop offset="1" stop-color="#214A2D"/>
    </linearGradient>
  </defs>
</svg>
